<svg width="176" height="159" viewBox="0 0 176 159" fill="none" xmlns="http://www.w3.org/2000/svg">
<g clip-path="url(#clip0)">
<path d="M130.913 91.078C129.492 92.0486 123.632 92.2618 123.632 92.2618C123.632 92.2618 126.016 86.8433 127.437 85.8713C128.12 85.4226 128.949 85.263 129.747 85.4269C130.545 85.5908 131.247 86.065 131.703 86.7475C132.159 87.43 132.331 88.2662 132.183 89.0761C132.036 89.8861 131.58 90.6049 130.913 91.078Z" fill="#6C63FF"/>
<path d="M116.634 95.0546C117.968 96.1445 123.787 96.864 123.787 96.864C123.787 96.864 121.871 91.2534 120.537 90.1677C119.895 89.6636 119.083 89.4344 118.275 89.5294C117.467 89.6244 116.729 90.036 116.218 90.6757C115.707 91.3155 115.464 92.1324 115.542 92.9512C115.62 93.7699 116.012 94.5251 116.634 95.0546Z" fill="#6C63FF"/>
<path d="M130.913 91.078C129.492 92.0486 123.632 92.2618 123.632 92.2618C123.632 92.2618 126.016 86.8433 127.437 85.8713C128.12 85.4226 128.949 85.263 129.747 85.4269C130.545 85.5908 131.247 86.065 131.703 86.7475C132.159 87.43 132.331 88.2662 132.183 89.0761C132.036 89.8861 131.58 90.6049 130.913 91.078Z" fill="#FC6681"/>
<path d="M116.634 95.0546C117.968 96.1445 123.787 96.864 123.787 96.864C123.787 96.864 121.871 91.2534 120.537 90.1677C119.895 89.6636 119.083 89.4344 118.275 89.5294C117.467 89.6244 116.729 90.036 116.218 90.6757C115.707 91.3155 115.464 92.1324 115.542 92.9512C115.62 93.7699 116.012 94.5251 116.634 95.0546Z" fill="#FC6681"/>
<path opacity="0.1" d="M58.0157 62.0794C58.1342 62.2545 58.2276 62.4458 58.293 62.6475C60.6918 65.4977 61.9688 68.1586 59.6643 68.2259C57.5165 68.2876 54.9403 72.173 54.3232 73.1534C54.3436 73.2291 54.3681 73.3036 54.3967 73.3765C54.3967 73.3765 57.4167 68.296 59.8751 68.2245C62.3335 68.1529 60.7195 65.1344 58.0157 62.0794Z" fill="black"/>
<path d="M149.542 139.916L137.394 85.8461H132.881C132.7 83.78 132.58 81.7783 132.534 79.8932C132.534 79.8932 116.172 83.5148 103.125 73.0369C90.0772 62.559 74.7376 73.9431 74.7376 73.9431L74.6779 73.8996V73.8785V73.9052C73.6131 73.1421 58.9182 62.9546 46.3545 73.0454C33.3124 83.5233 16.9453 79.9016 16.9453 79.9016C16.8995 81.8106 16.7775 83.829 16.5931 85.9148H12.4057L0 140.111C0 140.111 50.4296 142.021 68.1014 140.26C68.7351 141.615 71.4666 142.633 74.739 142.633C78.4161 142.633 81.407 141.347 81.511 139.743C95.2671 140.802 124.868 142.495 149.542 139.916Z" fill="url(#paint0_linear)"/>
<path d="M13.7049 86.3216L1.55994 139.39C1.55994 139.39 68.4162 141.923 73.8003 138.377C73.8003 138.377 115.305 142.62 147.982 139.201L136.088 86.2599L13.7049 86.3216Z" fill="#FCF8EB" fill-opacity="0.5"/>
<path opacity="0.1" d="M17.8369 88.1549L6.51416 137.631C6.51416 137.631 68.8461 139.993 73.8655 136.687C73.8655 136.687 112.561 140.643 143.026 137.454L131.934 88.096L17.8369 88.1549Z" fill="black"/>
<path d="M131.33 80.4331C131.33 80.4331 115.304 83.979 102.534 73.72C89.7637 63.4609 74.7389 74.6064 74.7389 74.6064C74.7389 74.6064 59.7154 63.4609 46.9451 73.72C34.1747 83.979 18.1487 80.4331 18.1487 80.4331C17.644 101.078 8.13354 134.514 8.13354 134.514C8.13354 134.514 25.6612 139.327 48.8239 129.575C71.9865 119.824 74.7403 132.995 74.7403 132.995C74.7403 132.995 77.494 119.823 100.657 129.575C123.819 139.328 141.347 134.514 141.347 134.514C141.347 134.514 131.831 101.078 131.33 80.4331Z" fill="#FCF8EB"/>
<path opacity="0.1" d="M43.8156 133.378C43.8156 133.378 64.9746 128.566 74.7361 135.658C74.7361 135.658 84.1259 127.045 105.91 133.758" fill="black"/>
<path d="M74.7389 141.86C78.404 141.86 81.3751 140.556 81.3751 138.947C81.3751 137.338 78.404 136.033 74.7389 136.033C71.0739 136.033 68.1028 137.338 68.1028 138.947C68.1028 140.556 71.0739 141.86 74.7389 141.86Z" fill="#FCF8EB" fill-opacity="0.2"/>
<path opacity="0.1" d="M74.6765 74.5434C74.6765 74.5434 79.4337 98.9876 74.8012 133.437L74.6765 74.5434Z" fill="black"/>
<path opacity="0.1" d="M22.7328 88.0961C22.7328 88.0961 32.6981 90.4385 41.3239 88.0961C49.9498 85.7536 65.7872 78.0909 70.9965 88.0961" stroke="black" stroke-width="4" stroke-miterlimit="10"/>
<path opacity="0.1" d="M22.7328 92.4021C22.7328 92.4021 32.6981 94.7445 41.3239 92.4021C49.9498 90.0596 68.6269 90.1859 70.9965 92.4021" stroke="black" stroke-width="4" stroke-miterlimit="10"/>
<path opacity="0.1" d="M22.7328 99.9947C22.7328 99.9947 32.6981 102.337 41.3239 99.9947C49.9498 97.6522 65.7872 89.9895 70.9965 99.9947" stroke="black" stroke-width="4" stroke-miterlimit="10"/>
<path opacity="0.1" d="M22.7328 104.307C22.7328 104.307 32.6981 106.649 41.3239 104.307C49.9498 101.964 68.6269 102.09 70.9965 104.307" stroke="black" stroke-width="4" stroke-miterlimit="10"/>
<path opacity="0.1" d="M126.746 88.0961C126.746 88.0961 116.781 90.4385 108.155 88.0961C99.5293 85.7536 83.6919 78.0909 78.4825 88.0961" stroke="black" stroke-width="4" stroke-miterlimit="10"/>
<path opacity="0.1" d="M126.746 92.4021C126.746 92.4021 116.781 94.7445 108.155 92.4021C99.5293 90.0596 80.8522 90.1859 78.4825 92.4021" stroke="black" stroke-width="4" stroke-miterlimit="10"/>
<path opacity="0.1" d="M126.746 99.9947C126.746 99.9947 116.781 102.337 108.155 99.9947C99.5293 97.6522 83.6919 89.9895 78.4825 99.9947" stroke="black" stroke-width="4" stroke-miterlimit="10"/>
<path opacity="0.1" d="M126.746 104.307C126.746 104.307 116.781 106.649 108.155 104.307C99.5293 101.964 80.8522 102.09 78.4825 104.307" stroke="black" stroke-width="4" stroke-miterlimit="10"/>
</g>
<path d="M51.7949 53.2031C52.8848 53.543 53.9453 54.0176 54.9766 54.627C56.0078 55.2363 56.8574 55.9922 57.5254 56.8945C58.2051 57.7969 58.5449 58.834 58.5449 60.0059C58.5449 61.6113 57.8418 63 56.4355 64.1719C54.5137 65.7891 51.7539 66.5977 48.1562 66.5977C46.4688 66.5977 44.6758 66.4043 42.7773 66.0176C42.543 65.959 42.332 65.8301 42.1445 65.6309C41.9688 65.4199 41.875 65.1855 41.8633 64.9277L41.7578 41.8652C41.7578 41.5605 41.8633 41.3027 42.0742 41.0918C42.2852 40.8691 42.5254 40.7461 42.7949 40.7227C43.5684 40.6523 44.3418 40.6172 45.1152 40.6172C46.8496 40.6172 48.502 40.8105 50.0723 41.1973C51.6426 41.5723 53.0078 42.1465 54.168 42.9199C55.3281 43.6816 56.1602 44.6426 56.6641 45.8027C56.9336 46.4355 57.0684 47.0566 57.0684 47.666C57.0684 48.5918 56.7988 49.418 56.2598 50.1445C55.7207 50.8711 55.041 51.4922 54.2207 52.0078C53.4121 52.5117 52.6035 52.9102 51.7949 53.2031ZM44.0957 52.377C44.2715 52.2832 44.5996 52.2188 45.0801 52.1836C45.3379 52.1602 45.6191 52.1367 45.9238 52.1133C46.2402 52.0781 46.5801 52.0371 46.9434 51.9902C50.4707 51.5215 52.8496 50.5898 54.0801 49.1953C54.5371 48.668 54.7656 48.1289 54.7656 47.5781C54.7656 47.2852 54.7012 46.9922 54.5723 46.6992C54.1973 45.8438 53.5117 45.1348 52.5156 44.5723C51.5312 43.998 50.3887 43.5703 49.0879 43.2891C47.7988 43.0078 46.5156 42.8672 45.2383 42.8672C44.8516 42.8672 44.4531 42.8789 44.043 42.9023L44.0957 52.377ZM44.5176 54.5039C44.3418 54.4453 44.2012 54.3926 44.0957 54.3457L44.1484 63.9609C45.5195 64.1953 46.8555 64.3125 48.1562 64.3125C51.1914 64.3125 53.4648 63.6797 54.9766 62.4141C55.8438 61.6875 56.2773 60.8906 56.2773 60.0234C56.2773 59.4375 56.0898 58.875 55.7148 58.3359C55.3516 57.7852 54.8477 57.2871 54.2031 56.8418C52.0469 55.3535 48.8184 54.5742 44.5176 54.5039ZM71.0957 47.7715C74.0137 47.9473 76.4043 49.3887 78.2676 52.0957C78.7715 52.8223 79.1582 53.6309 79.4277 54.5215C79.6973 55.4004 79.832 56.3789 79.832 57.457C79.832 59.0625 79.4512 60.5039 78.6895 61.7812C77.9277 63.0469 77.0078 64.0254 75.9297 64.7168C75.2383 65.1621 74.459 65.5195 73.5918 65.7891C72.7246 66.0469 71.8281 66.1758 70.9023 66.1758C69.1797 66.1758 67.709 65.8008 66.4902 65.0508C65.2832 64.2891 64.3105 63.3457 63.5723 62.2207C62.5762 60.6738 62.0781 59.0156 62.0781 57.2461C62.0781 56.7773 62.1133 56.3027 62.1836 55.8223C62.5117 53.4902 63.4902 51.5801 65.1191 50.0918C66.7598 48.5918 68.6113 47.8008 70.6738 47.7188C70.8145 47.6953 70.9551 47.7129 71.0957 47.7715ZM77.5293 57.334C77.5293 55.9746 77.2129 54.7617 76.5801 53.6953C75.9473 52.6172 75.127 51.7617 74.1191 51.1289C73.123 50.4844 72.0742 50.127 70.9727 50.0566C70.8789 50.0566 70.7852 50.0391 70.6914 50.0039C69.4961 50.0742 68.418 50.4434 67.457 51.1113C66.4961 51.7676 65.7344 52.6348 65.1719 53.7129C64.6211 54.7793 64.3457 55.9688 64.3457 57.2812C64.3457 58.2891 64.5391 59.2031 64.9258 60.0234C65.3242 60.8438 65.834 61.5469 66.4551 62.1328C67.0879 62.707 67.7441 63.1348 68.4238 63.416C69.2441 63.7441 70.0879 63.9082 70.9551 63.9082C72.1621 63.9082 73.2578 63.627 74.2422 63.0645C75.2383 62.4902 75.9941 61.7988 76.5098 60.9902C76.8496 60.4512 77.1016 59.8711 77.2656 59.25C77.4414 58.6172 77.5293 57.9785 77.5293 57.334ZM92.3652 47.7715C95.2832 47.9473 97.6738 49.3887 99.5371 52.0957C100.041 52.8223 100.428 53.6309 100.697 54.5215C100.967 55.4004 101.102 56.3789 101.102 57.457C101.102 59.0625 100.721 60.5039 99.959 61.7812C99.1973 63.0469 98.2773 64.0254 97.1992 64.7168C96.5078 65.1621 95.7285 65.5195 94.8613 65.7891C93.9941 66.0469 93.0977 66.1758 92.1719 66.1758C90.4492 66.1758 88.9785 65.8008 87.7598 65.0508C86.5527 64.2891 85.5801 63.3457 84.8418 62.2207C83.8457 60.6738 83.3477 59.0156 83.3477 57.2461C83.3477 56.7773 83.3828 56.3027 83.4531 55.8223C83.7812 53.4902 84.7598 51.5801 86.3887 50.0918C88.0293 48.5918 89.8809 47.8008 91.9434 47.7188C92.084 47.6953 92.2246 47.7129 92.3652 47.7715ZM98.7988 57.334C98.7988 55.9746 98.4824 54.7617 97.8496 53.6953C97.2168 52.6172 96.3965 51.7617 95.3887 51.1289C94.3926 50.4844 93.3438 50.127 92.2422 50.0566C92.1484 50.0566 92.0547 50.0391 91.9609 50.0039C90.7656 50.0742 89.6875 50.4434 88.7266 51.1113C87.7656 51.7676 87.0039 52.6348 86.4414 53.7129C85.8906 54.7793 85.6152 55.9688 85.6152 57.2812C85.6152 58.2891 85.8086 59.2031 86.1953 60.0234C86.5938 60.8438 87.1035 61.5469 87.7246 62.1328C88.3574 62.707 89.0137 63.1348 89.6934 63.416C90.5137 63.7441 91.3574 63.9082 92.2246 63.9082C93.4316 63.9082 94.5273 63.627 95.5117 63.0645C96.5078 62.4902 97.2637 61.7988 97.7793 60.9902C98.1191 60.4512 98.3711 59.8711 98.5352 59.25C98.7109 58.6172 98.7988 57.9785 98.7988 57.334ZM122.389 65.1211C122.389 65.4609 122.266 65.7305 122.02 65.9297C121.785 66.1172 121.527 66.2109 121.246 66.2109C121.023 66.2109 120.807 66.1465 120.596 66.0176C120.396 65.8887 120.262 65.6953 120.191 65.4375C119.98 64.7227 119.031 63.5566 117.344 61.9395C116.008 60.6504 114.496 59.3086 112.809 57.9141C111.121 56.5195 109.246 55.0664 107.184 53.5547C107.102 56.9062 107.037 59.5723 106.99 61.5527C106.943 63.5215 106.914 64.8105 106.902 65.4199C106.902 65.7832 106.779 66.0527 106.533 66.2285C106.299 66.416 106.041 66.5098 105.76 66.5098C105.467 66.5098 105.203 66.416 104.969 66.2285C104.734 66.0527 104.617 65.7832 104.617 65.4199C104.617 64.4941 104.67 62.0684 104.775 58.1426C104.881 54.2051 105.016 48.7441 105.18 41.7598C105.191 41.4551 105.314 41.1973 105.549 40.9863C105.795 40.7637 106.064 40.6523 106.357 40.6523C106.65 40.6523 106.908 40.7695 107.131 41.0039C107.354 41.2266 107.465 41.4961 107.465 41.8125C107.418 43.5469 107.377 45.1992 107.342 46.7695C107.307 48.3281 107.271 49.7871 107.236 51.1465L107.887 50.6367C109.48 49.418 110.898 48.293 112.141 47.2617C113.395 46.2188 114.479 45.2754 115.393 44.4316C117.244 42.7207 118.287 41.6836 118.521 41.3203C118.65 41.1211 118.809 40.9512 118.996 40.8105C119.184 40.6582 119.395 40.582 119.629 40.582C119.934 40.582 120.191 40.7051 120.402 40.9512C120.625 41.1855 120.736 41.4492 120.736 41.7422C120.736 41.9648 120.678 42.1699 120.561 42.3574C119.682 43.7285 116.822 46.377 111.982 50.3027C110.963 51.123 110.102 51.8086 109.398 52.3594C111.297 53.7773 113.055 55.1602 114.672 56.5078C116.289 57.8438 117.754 59.1504 119.066 60.4277C121.281 62.5723 122.389 64.1367 122.389 65.1211ZM125.922 44.6426C125.922 44.209 126.051 43.793 126.309 43.3945C126.578 42.9844 126.906 42.6562 127.293 42.4102C127.68 42.1523 128.061 42.0234 128.436 42.0234C128.986 42.0234 129.449 42.2578 129.824 42.7266C130.211 43.1836 130.404 43.6406 130.404 44.0977C130.404 44.5312 130.27 44.9297 130 45.293C129.73 45.6562 129.367 45.9199 128.91 46.084C128.395 46.3418 127.938 46.4707 127.539 46.4707C127.105 46.4707 126.725 46.2949 126.396 45.9434C126.08 45.5801 125.922 45.1465 125.922 44.6426ZM128.77 63.1348C128.734 64.0723 128.605 64.8223 128.383 65.3848C128.16 65.9355 127.773 66.2109 127.223 66.2109C126.918 66.2109 126.648 66.0996 126.414 65.877C126.18 65.6543 126.062 65.3789 126.062 65.0508C126.062 64.8984 126.092 64.7461 126.15 64.5938C126.256 64.3477 126.338 63.8613 126.396 63.1348C126.467 62.3965 126.52 61.5293 126.555 60.5332C126.59 59.5371 126.613 58.5117 126.625 57.457C126.648 56.3906 126.66 55.4004 126.66 54.4863C126.66 53.5723 126.66 52.8457 126.66 52.3066C126.66 51.3105 126.654 50.3555 126.643 49.4414C126.643 49.0664 126.76 48.7852 126.994 48.5977C127.24 48.4102 127.51 48.3164 127.803 48.3164C128.084 48.3164 128.336 48.4102 128.559 48.5977C128.793 48.7734 128.91 49.043 128.91 49.4062C128.922 50.0273 128.928 50.6367 128.928 51.2344C128.939 51.832 128.945 52.418 128.945 52.9922C128.945 54.9023 128.934 56.6309 128.91 58.1777C128.898 59.7246 128.852 61.377 128.77 63.1348ZM135.115 47.8945C135.455 47.8945 135.736 48.0293 135.959 48.2988C136.803 49.3184 137.418 50.8887 137.805 53.0098C139.398 50.127 141.455 48.5039 143.975 48.1406C144.373 48.082 144.766 48.0527 145.152 48.0527C146.559 48.0527 147.801 48.375 148.879 49.0195C149.957 49.6641 150.842 50.5137 151.533 51.5684C152.225 52.623 152.693 53.7598 152.939 54.9785C153.104 55.7637 153.186 56.5664 153.186 57.3867C153.186 59.9766 152.359 62.7129 150.707 65.5957C150.496 65.959 150.174 66.1406 149.74 66.1406C149.377 66.1406 149.049 65.9707 148.756 65.6309C148.475 65.2793 148.463 64.8867 148.721 64.4531C150.174 61.9219 150.9 59.5605 150.9 57.3691C150.9 56.7129 150.836 56.0742 150.707 55.4531C150.52 54.5508 150.174 53.7129 149.67 52.9395C149.178 52.166 148.545 51.5449 147.771 51.0762C147.01 50.5957 146.131 50.3555 145.135 50.3555C144.865 50.3555 144.59 50.373 144.309 50.4082C143.148 50.5723 142.158 51.082 141.338 51.9375C140.518 52.793 139.855 53.8301 139.352 55.0488C138.859 56.2559 138.502 57.4863 138.279 58.7402C138.279 58.8926 138.279 59.0449 138.279 59.1973C138.279 60.8848 138.191 62.584 138.016 64.2949L137.945 64.9805C137.91 65.3086 137.781 65.5547 137.559 65.7188C137.336 65.8711 137.096 65.9473 136.838 65.9473C136.557 65.9473 136.293 65.8594 136.047 65.6836C135.812 65.5078 135.689 65.2441 135.678 64.8926C135.654 64.3652 135.643 63.8496 135.643 63.3457C135.643 61.623 135.76 60.0352 135.994 58.582C135.947 55.8867 135.736 53.8652 135.361 52.5176C134.998 51.1816 134.664 50.3262 134.359 49.9512C134.078 49.5996 133.938 49.2891 133.938 49.0195C133.938 48.6797 134.061 48.4102 134.307 48.2109C134.553 48 134.822 47.8945 135.115 47.8945ZM163.258 66.2109C162.145 66.2109 161.225 65.8301 160.498 65.0684C159.783 64.3066 159.25 63.3398 158.898 62.168C158.547 60.9961 158.371 59.7949 158.371 58.5645C158.371 56.8066 158.734 55.1016 159.461 53.4492C160.527 51.0234 162.191 49.4062 164.453 48.5977C165.285 48.293 166.111 48.1406 166.932 48.1406C168.619 48.1406 169.926 48.6973 170.852 49.8105C171.777 50.9238 172.299 52.3066 172.416 53.959C172.463 54.1934 172.516 54.6152 172.574 55.2246C172.633 55.8223 172.686 56.4902 172.732 57.2285C172.779 57.9551 172.814 58.6582 172.838 59.3379C172.873 60.0176 172.891 60.5566 172.891 60.9551C172.891 65.0215 172.287 68.3086 171.08 70.8164C170.4 72.2109 169.469 73.4062 168.285 74.4023C167.102 75.4102 165.602 75.9141 163.785 75.9141C163.445 75.9141 163.094 75.8906 162.73 75.8438C160.902 75.6328 159.08 74.9707 157.264 73.8574C156.912 73.6465 156.736 73.3242 156.736 72.8906C156.736 72.4922 156.912 72.1641 157.264 71.9062C157.627 71.6484 158.025 71.6484 158.459 71.9062C160.006 72.8438 161.482 73.3945 162.889 73.5586C163.205 73.5938 163.51 73.6113 163.803 73.6113C165.174 73.6113 166.252 73.2539 167.037 72.5391C167.834 71.8242 168.496 70.916 169.023 69.8145C170.078 67.623 170.605 64.6641 170.605 60.9375C170.605 60.4922 170.6 60.041 170.588 59.584C168.561 63.627 166.598 65.7598 164.699 65.9824C164.195 66.1348 163.715 66.2109 163.258 66.2109ZM163.416 63.8906C163.615 63.8906 163.797 63.8613 163.961 63.8027C164.125 63.7324 164.312 63.6973 164.523 63.6973C164.688 63.6973 164.998 63.5039 165.455 63.1172C165.9 62.7305 166.363 62.1914 166.844 61.5C167.324 60.8086 167.775 60.0703 168.197 59.2852C168.619 58.5 168.965 57.7676 169.234 57.0879C169.785 55.6934 170.096 54.8145 170.166 54.4512C170.154 54.3574 170.143 54.2812 170.131 54.2227C170.131 54.1641 170.131 54.123 170.131 54.0996C170.025 52.8574 169.727 51.9375 169.234 51.3398C168.742 50.7305 167.998 50.4258 167.002 50.4258C166.381 50.4258 165.789 50.5312 165.227 50.7422C163.609 51.3164 162.402 52.4941 161.605 54.2754C160.973 55.7051 160.656 57.1348 160.656 58.5645C160.656 59.5723 160.779 60.5215 161.025 61.4121C161.283 62.291 161.594 62.9004 161.957 63.2402C162.414 63.6738 162.9 63.8906 163.416 63.8906Z" fill="#B58B8B"/>
<g opacity="0.5">
<path d="M128.063 26.1282C126.535 26.1282 125.297 24.8896 125.297 23.3621C125.297 21.8346 126.536 20.5961 128.063 20.5961C129.16 15.9066 128.692 8.3262 128.063 0.446198C126.527 0.446198 125.282 1.69146 125.282 3.22743C125.282 4.31843 125.912 5.26052 126.827 5.71573L121.973 15.483L113.615 10.4453C113.863 10.0289 114.009 9.54427 114.009 9.0244C114.009 7.48844 112.763 6.24318 111.227 6.24318C109.692 6.24318 108.446 7.48844 108.446 9.0244C108.446 10.5604 109.691 11.8056 111.227 11.8056C111.419 11.8056 111.606 11.786 111.787 11.7495L114.94 29.4324H115.342H128.063C129.13 28.7195 128.756 27.4823 128.063 26.1282Z" fill="#FCF8EB" fill-opacity="0.75"/>
<path d="M128.063 26.1284C129.591 26.1284 130.829 24.8898 130.829 23.3623C130.829 21.8349 129.591 20.5958 128.063 20.5958V0.445953C129.599 0.445953 130.845 1.69122 130.845 3.22718C130.845 4.31819 130.215 5.26027 129.3 5.71549L134.154 15.4832L142.512 10.446C142.263 10.0296 142.118 9.54492 142.118 9.02505C142.118 7.48909 143.363 6.24382 144.899 6.24382C146.435 6.24382 147.681 7.48864 147.681 9.02461C147.681 10.5606 146.436 11.8058 144.9 11.8058C144.708 11.8058 144.521 11.7862 144.34 11.7497L141.187 29.4326H140.785H128.063V26.1284Z" fill="#FCF8EB"/>
<path d="M128.063 20.1502C126.292 20.1502 124.851 21.5908 124.851 23.3621C124.851 25.1335 126.292 26.5741 128.063 26.5741C129.795 24.4326 129.795 22.2912 128.063 20.1502Z" fill="#B58B8B"/>
<path d="M128.063 20.1502C129.834 20.1502 131.275 21.5908 131.275 23.3621C131.275 25.1335 129.834 26.5741 128.063 26.5741V20.1502Z" fill="#B58B8B"/>
<path d="M141.187 29.8784H114.94C114.724 29.8784 114.539 29.7232 114.501 29.511L111.422 12.2458C109.577 12.3568 108 10.8694 108 9.02451C108 7.24511 109.448 5.79743 111.227 5.79743C113.006 5.79743 114.454 7.24511 114.454 9.02451C114.454 9.45476 114.367 9.88055 114.199 10.2769L121.788 14.8514L126.242 5.88927C125.365 5.29227 124.836 4.30783 124.836 3.22708C124.836 1.44768 126.284 0 128.063 0C129.842 0 131.29 1.44768 131.29 3.22708C131.29 4.28554 130.778 5.25883 129.928 5.85895L134.526 14.7354L141.927 10.2765C141.76 9.8801 141.672 9.45431 141.672 9.02451C141.672 7.24511 143.12 5.79743 144.899 5.79743C146.679 5.79743 148.127 7.24511 148.127 9.02451C148.127 10.8694 146.55 12.3581 144.704 12.2458L141.625 29.5106C141.587 29.7232 141.402 29.8784 141.187 29.8784ZM115.313 28.9867H140.813L143.901 11.6715C143.921 11.5534 143.989 11.4486 144.089 11.3813C144.188 11.314 144.31 11.2899 144.428 11.3131C144.584 11.3447 144.742 11.3603 144.9 11.3603C146.188 11.3603 147.235 10.3126 147.235 9.02495C147.235 7.73733 146.187 6.68958 144.9 6.68958C143.612 6.68958 142.564 7.73733 142.564 9.02495C142.564 9.44183 142.678 9.85424 142.895 10.2176C143.02 10.4285 142.952 10.7009 142.741 10.8275L134.58 15.7453C134.474 15.8095 134.347 15.8264 134.229 15.7921C134.11 15.7587 134.011 15.6775 133.954 15.5678L128.946 5.90086C128.833 5.68239 128.918 5.41355 129.137 5.29985C129.915 4.89591 130.399 4.1014 130.399 3.22753C130.399 1.93991 129.351 0.892152 128.063 0.892152C126.776 0.892152 125.728 1.93991 125.728 3.22753C125.728 4.1179 126.225 4.9182 127.025 5.31724C127.246 5.42692 127.335 5.69443 127.226 5.91468L122.372 15.6815C122.316 15.793 122.216 15.8764 122.097 15.9112C121.977 15.9455 121.849 15.929 121.742 15.8648L113.385 10.8275C113.175 10.7009 113.106 10.4281 113.232 10.2172C113.448 9.85424 113.563 9.44183 113.563 9.02451C113.563 7.73688 112.515 6.68913 111.228 6.68913C109.94 6.68913 108.892 7.73688 108.892 9.02451C108.892 10.3121 109.939 11.3599 111.227 11.3599C111.385 11.3599 111.543 11.3438 111.698 11.3126C111.816 11.289 111.938 11.3131 112.038 11.3808C112.137 11.4482 112.205 11.5529 112.226 11.6711L115.313 28.9867Z" fill="black"/>
<path d="M128.063 26.5741C126.292 26.5741 124.851 25.1335 124.851 23.3621C124.851 21.5908 126.292 20.1502 128.063 20.1502C129.835 20.1502 131.275 21.5908 131.275 23.3621C131.275 25.1335 129.835 26.5741 128.063 26.5741ZM128.063 21.0419C126.784 21.0419 125.743 22.083 125.743 23.3621C125.743 24.6413 126.784 25.6823 128.063 25.6823C129.343 25.6823 130.384 24.6413 130.384 23.3621C130.384 22.083 129.343 21.0419 128.063 21.0419Z" fill="black"/>
</g>
<defs>
<linearGradient id="paint0_linear" x1="74.7708" y1="142.632" x2="74.7708" y2="68.6073" gradientUnits="userSpaceOnUse">
<stop stop-color="#808080" stop-opacity="0.25"/>
<stop offset="0.54" stop-color="#808080" stop-opacity="0.12"/>
<stop offset="1" stop-color="#808080" stop-opacity="0.1"/>
</linearGradient>
<clipPath id="clip0">
<rect width="149.542" height="109.458" fill="white" transform="translate(0 49.3333)"/>
</clipPath>
</defs>
</svg>
