<svg width="150" height="167" viewBox="0 0 150 167" fill="none" xmlns="http://www.w3.org/2000/svg">
<g clip-path="url(#clip0_21_5)">
<path d="M130.913 99.078C129.492 100.049 123.632 100.262 123.632 100.262C123.632 100.262 126.016 94.8433 127.437 93.8713C128.12 93.4226 128.949 93.263 129.747 93.4269C130.545 93.5908 131.247 94.065 131.703 94.7475C132.159 95.43 132.331 96.2662 132.183 97.0761C132.036 97.8861 131.58 98.6049 130.913 99.078Z" fill="#6C63FF"/>
<path d="M116.634 103.055C117.968 104.144 123.787 104.864 123.787 104.864C123.787 104.864 121.871 99.2534 120.537 98.1677C119.895 97.6636 119.083 97.4344 118.275 97.5294C117.467 97.6244 116.729 98.036 116.218 98.6757C115.707 99.3155 115.464 100.132 115.542 100.951C115.62 101.77 116.012 102.525 116.634 103.055Z" fill="#6C63FF"/>
<path d="M130.913 99.078C129.492 100.049 123.632 100.262 123.632 100.262C123.632 100.262 126.016 94.8433 127.437 93.8713C128.12 93.4226 128.949 93.263 129.747 93.4269C130.545 93.5908 131.247 94.065 131.703 94.7475C132.159 95.43 132.331 96.2662 132.183 97.0761C132.036 97.8861 131.58 98.6049 130.913 99.078Z" fill="#FC6681"/>
<path d="M116.634 103.055C117.968 104.144 123.787 104.864 123.787 104.864C123.787 104.864 121.871 99.2534 120.537 98.1677C119.895 97.6636 119.083 97.4344 118.275 97.5294C117.467 97.6244 116.729 98.036 116.218 98.6757C115.707 99.3155 115.464 100.132 115.542 100.951C115.62 101.77 116.012 102.525 116.634 103.055Z" fill="#FC6681"/>
<path opacity="0.1" d="M58.0157 70.0794C58.1342 70.2545 58.2276 70.4458 58.293 70.6475C60.6918 73.4977 61.9688 76.1586 59.6643 76.2259C57.5165 76.2876 54.9403 80.173 54.3232 81.1534C54.3436 81.2291 54.3681 81.3036 54.3967 81.3765C54.3967 81.3765 57.4167 76.296 59.8751 76.2245C62.3335 76.1529 60.7195 73.1344 58.0157 70.0794Z" fill="black"/>
<path d="M149.542 147.916L137.394 93.8461H132.881C132.7 91.78 132.58 89.7783 132.534 87.8932C132.534 87.8932 116.172 91.5148 103.125 81.0369C90.0772 70.559 74.7376 81.9431 74.7376 81.9431L74.6779 81.8996V81.8785V81.9052C73.6131 81.1421 58.9182 70.9546 46.3545 81.0454C33.3124 91.5233 16.9453 87.9016 16.9453 87.9016C16.8995 89.8106 16.7775 91.829 16.5931 93.9148H12.4057L0 148.111C0 148.111 50.4296 150.021 68.1014 148.26C68.7351 149.615 71.4666 150.633 74.739 150.633C78.4161 150.633 81.407 149.347 81.511 147.743C95.2671 148.802 124.868 150.495 149.542 147.916Z" fill="url(#paint0_linear_21_5)"/>
<path d="M13.7049 94.3216L1.55994 147.39C1.55994 147.39 68.4162 149.923 73.8003 146.377C73.8003 146.377 115.305 150.62 147.982 147.201L136.088 94.2599L13.7049 94.3216Z" fill="#FCF8EB" fill-opacity="0.5"/>
<path opacity="0.1" d="M17.8369 96.1549L6.51416 145.631C6.51416 145.631 68.8461 147.993 73.8655 144.687C73.8655 144.687 112.561 148.643 143.026 145.454L131.934 96.096L17.8369 96.1549Z" fill="black"/>
<path d="M131.33 88.4331C131.33 88.4331 115.304 91.979 102.534 81.72C89.7637 71.4609 74.7389 82.6064 74.7389 82.6064C74.7389 82.6064 59.7154 71.4609 46.9451 81.72C34.1747 91.979 18.1487 88.4331 18.1487 88.4331C17.644 109.078 8.13354 142.514 8.13354 142.514C8.13354 142.514 25.6612 147.327 48.8239 137.575C71.9865 127.824 74.7403 140.995 74.7403 140.995C74.7403 140.995 77.494 127.823 100.657 137.575C123.819 147.328 141.347 142.514 141.347 142.514C141.347 142.514 131.831 109.078 131.33 88.4331Z" fill="#FCF8EB"/>
<path opacity="0.1" d="M43.8156 141.378C43.8156 141.378 64.9746 136.566 74.7361 143.658C74.7361 143.658 84.1259 135.045 105.91 141.758" fill="black"/>
<path d="M74.7389 149.86C78.404 149.86 81.3751 148.556 81.3751 146.947C81.3751 145.338 78.404 144.033 74.7389 144.033C71.0739 144.033 68.1028 145.338 68.1028 146.947C68.1028 148.556 71.0739 149.86 74.7389 149.86Z" fill="#FCF8EB" fill-opacity="0.2"/>
<path opacity="0.1" d="M74.6765 82.5434C74.6765 82.5434 79.4337 106.988 74.8012 141.437L74.6765 82.5434Z" fill="black"/>
<path opacity="0.1" d="M22.7328 96.0961C22.7328 96.0961 32.6981 98.4385 41.3239 96.0961C49.9498 93.7536 65.7872 86.0909 70.9965 96.0961" stroke="black" stroke-width="4" stroke-miterlimit="10"/>
<path opacity="0.1" d="M22.7328 100.402C22.7328 100.402 32.6981 102.745 41.3239 100.402C49.9498 98.0596 68.6269 98.1859 70.9965 100.402" stroke="black" stroke-width="4" stroke-miterlimit="10"/>
<path opacity="0.1" d="M22.7328 107.995C22.7328 107.995 32.6981 110.337 41.3239 107.995C49.9498 105.652 65.7872 97.9895 70.9965 107.995" stroke="black" stroke-width="4" stroke-miterlimit="10"/>
<path opacity="0.1" d="M22.7328 112.307C22.7328 112.307 32.6981 114.649 41.3239 112.307C49.9498 109.964 68.6269 110.09 70.9965 112.307" stroke="black" stroke-width="4" stroke-miterlimit="10"/>
<path opacity="0.1" d="M126.746 96.0961C126.746 96.0961 116.781 98.4385 108.155 96.0961C99.5293 93.7536 83.6919 86.0909 78.4825 96.0961" stroke="black" stroke-width="4" stroke-miterlimit="10"/>
<path opacity="0.1" d="M126.746 100.402C126.746 100.402 116.781 102.745 108.155 100.402C99.5293 98.0596 80.8522 98.1859 78.4825 100.402" stroke="black" stroke-width="4" stroke-miterlimit="10"/>
<path opacity="0.1" d="M126.746 107.995C126.746 107.995 116.781 110.337 108.155 107.995C99.5293 105.652 83.6919 97.9895 78.4825 107.995" stroke="black" stroke-width="4" stroke-miterlimit="10"/>
<path opacity="0.1" d="M126.746 112.307C126.746 112.307 116.781 114.649 108.155 112.307C99.5293 109.964 80.8522 110.09 78.4825 112.307" stroke="black" stroke-width="4" stroke-miterlimit="10"/>
</g>
<path d="M24.7949 53.2031C25.8848 53.543 26.9453 54.0176 27.9766 54.627C29.0078 55.2363 29.8574 55.9922 30.5254 56.8945C31.2051 57.7969 31.5449 58.834 31.5449 60.0059C31.5449 61.6113 30.8418 63 29.4355 64.1719C27.5137 65.7891 24.7539 66.5977 21.1562 66.5977C19.4688 66.5977 17.6758 66.4043 15.7773 66.0176C15.543 65.959 15.332 65.8301 15.1445 65.6309C14.9688 65.4199 14.875 65.1855 14.8633 64.9277L14.7578 41.8652C14.7578 41.5605 14.8633 41.3027 15.0742 41.0918C15.2852 40.8691 15.5254 40.7461 15.7949 40.7227C16.5684 40.6523 17.3418 40.6172 18.1152 40.6172C19.8496 40.6172 21.502 40.8105 23.0723 41.1973C24.6426 41.5723 26.0078 42.1465 27.168 42.9199C28.3281 43.6816 29.1602 44.6426 29.6641 45.8027C29.9336 46.4355 30.0684 47.0566 30.0684 47.666C30.0684 48.5918 29.7988 49.418 29.2598 50.1445C28.7207 50.8711 28.041 51.4922 27.2207 52.0078C26.4121 52.5117 25.6035 52.9102 24.7949 53.2031ZM17.0957 52.377C17.2715 52.2832 17.5996 52.2188 18.0801 52.1836C18.3379 52.1602 18.6191 52.1367 18.9238 52.1133C19.2402 52.0781 19.5801 52.0371 19.9434 51.9902C23.4707 51.5215 25.8496 50.5898 27.0801 49.1953C27.5371 48.668 27.7656 48.1289 27.7656 47.5781C27.7656 47.2852 27.7012 46.9922 27.5723 46.6992C27.1973 45.8438 26.5117 45.1348 25.5156 44.5723C24.5312 43.998 23.3887 43.5703 22.0879 43.2891C20.7988 43.0078 19.5156 42.8672 18.2383 42.8672C17.8516 42.8672 17.4531 42.8789 17.043 42.9023L17.0957 52.377ZM17.5176 54.5039C17.3418 54.4453 17.2012 54.3926 17.0957 54.3457L17.1484 63.9609C18.5195 64.1953 19.8555 64.3125 21.1562 64.3125C24.1914 64.3125 26.4648 63.6797 27.9766 62.4141C28.8438 61.6875 29.2773 60.8906 29.2773 60.0234C29.2773 59.4375 29.0898 58.875 28.7148 58.3359C28.3516 57.7852 27.8477 57.2871 27.2031 56.8418C25.0469 55.3535 21.8184 54.5742 17.5176 54.5039ZM44.0957 47.7715C47.0137 47.9473 49.4043 49.3887 51.2676 52.0957C51.7715 52.8223 52.1582 53.6309 52.4277 54.5215C52.6973 55.4004 52.832 56.3789 52.832 57.457C52.832 59.0625 52.4512 60.5039 51.6895 61.7812C50.9277 63.0469 50.0078 64.0254 48.9297 64.7168C48.2383 65.1621 47.459 65.5195 46.5918 65.7891C45.7246 66.0469 44.8281 66.1758 43.9023 66.1758C42.1797 66.1758 40.709 65.8008 39.4902 65.0508C38.2832 64.2891 37.3105 63.3457 36.5723 62.2207C35.5762 60.6738 35.0781 59.0156 35.0781 57.2461C35.0781 56.7773 35.1133 56.3027 35.1836 55.8223C35.5117 53.4902 36.4902 51.5801 38.1191 50.0918C39.7598 48.5918 41.6113 47.8008 43.6738 47.7188C43.8145 47.6953 43.9551 47.7129 44.0957 47.7715ZM50.5293 57.334C50.5293 55.9746 50.2129 54.7617 49.5801 53.6953C48.9473 52.6172 48.127 51.7617 47.1191 51.1289C46.123 50.4844 45.0742 50.127 43.9727 50.0566C43.8789 50.0566 43.7852 50.0391 43.6914 50.0039C42.4961 50.0742 41.418 50.4434 40.457 51.1113C39.4961 51.7676 38.7344 52.6348 38.1719 53.7129C37.6211 54.7793 37.3457 55.9688 37.3457 57.2812C37.3457 58.2891 37.5391 59.2031 37.9258 60.0234C38.3242 60.8438 38.834 61.5469 39.4551 62.1328C40.0879 62.707 40.7441 63.1348 41.4238 63.416C42.2441 63.7441 43.0879 63.9082 43.9551 63.9082C45.1621 63.9082 46.2578 63.627 47.2422 63.0645C48.2383 62.4902 48.9941 61.7988 49.5098 60.9902C49.8496 60.4512 50.1016 59.8711 50.2656 59.25C50.4414 58.6172 50.5293 57.9785 50.5293 57.334ZM65.3652 47.7715C68.2832 47.9473 70.6738 49.3887 72.5371 52.0957C73.041 52.8223 73.4277 53.6309 73.6973 54.5215C73.9668 55.4004 74.1016 56.3789 74.1016 57.457C74.1016 59.0625 73.7207 60.5039 72.959 61.7812C72.1973 63.0469 71.2773 64.0254 70.1992 64.7168C69.5078 65.1621 68.7285 65.5195 67.8613 65.7891C66.9941 66.0469 66.0977 66.1758 65.1719 66.1758C63.4492 66.1758 61.9785 65.8008 60.7598 65.0508C59.5527 64.2891 58.5801 63.3457 57.8418 62.2207C56.8457 60.6738 56.3477 59.0156 56.3477 57.2461C56.3477 56.7773 56.3828 56.3027 56.4531 55.8223C56.7812 53.4902 57.7598 51.5801 59.3887 50.0918C61.0293 48.5918 62.8809 47.8008 64.9434 47.7188C65.084 47.6953 65.2246 47.7129 65.3652 47.7715ZM71.7988 57.334C71.7988 55.9746 71.4824 54.7617 70.8496 53.6953C70.2168 52.6172 69.3965 51.7617 68.3887 51.1289C67.3926 50.4844 66.3438 50.127 65.2422 50.0566C65.1484 50.0566 65.0547 50.0391 64.9609 50.0039C63.7656 50.0742 62.6875 50.4434 61.7266 51.1113C60.7656 51.7676 60.0039 52.6348 59.4414 53.7129C58.8906 54.7793 58.6152 55.9688 58.6152 57.2812C58.6152 58.2891 58.8086 59.2031 59.1953 60.0234C59.5938 60.8438 60.1035 61.5469 60.7246 62.1328C61.3574 62.707 62.0137 63.1348 62.6934 63.416C63.5137 63.7441 64.3574 63.9082 65.2246 63.9082C66.4316 63.9082 67.5273 63.627 68.5117 63.0645C69.5078 62.4902 70.2637 61.7988 70.7793 60.9902C71.1191 60.4512 71.3711 59.8711 71.5352 59.25C71.7109 58.6172 71.7988 57.9785 71.7988 57.334ZM95.3887 65.1211C95.3887 65.4609 95.2656 65.7305 95.0195 65.9297C94.7852 66.1172 94.5273 66.2109 94.2461 66.2109C94.0234 66.2109 93.8066 66.1465 93.5957 66.0176C93.3965 65.8887 93.2617 65.6953 93.1914 65.4375C92.9805 64.7227 92.0312 63.5566 90.3438 61.9395C89.0078 60.6504 87.4961 59.3086 85.8086 57.9141C84.1211 56.5195 82.2461 55.0664 80.1836 53.5547C80.1016 56.9062 80.0371 59.5723 79.9902 61.5527C79.9434 63.5215 79.9141 64.8105 79.9023 65.4199C79.9023 65.7832 79.7793 66.0527 79.5332 66.2285C79.2988 66.416 79.041 66.5098 78.7598 66.5098C78.4668 66.5098 78.2031 66.416 77.9688 66.2285C77.7344 66.0527 77.6172 65.7832 77.6172 65.4199C77.6172 64.4941 77.6699 62.0684 77.7754 58.1426C77.8809 54.2051 78.0156 48.7441 78.1797 41.7598C78.1914 41.4551 78.3145 41.1973 78.5488 40.9863C78.7949 40.7637 79.0645 40.6523 79.3574 40.6523C79.6504 40.6523 79.9082 40.7695 80.1309 41.0039C80.3535 41.2266 80.4648 41.4961 80.4648 41.8125C80.418 43.5469 80.377 45.1992 80.3418 46.7695C80.3066 48.3281 80.2715 49.7871 80.2363 51.1465L80.8867 50.6367C82.4805 49.418 83.8984 48.293 85.1406 47.2617C86.3945 46.2188 87.4785 45.2754 88.3926 44.4316C90.2441 42.7207 91.2871 41.6836 91.5215 41.3203C91.6504 41.1211 91.8086 40.9512 91.9961 40.8105C92.1836 40.6582 92.3945 40.582 92.6289 40.582C92.9336 40.582 93.1914 40.7051 93.4023 40.9512C93.625 41.1855 93.7363 41.4492 93.7363 41.7422C93.7363 41.9648 93.6777 42.1699 93.5605 42.3574C92.6816 43.7285 89.8223 46.377 84.9824 50.3027C83.9629 51.123 83.1016 51.8086 82.3984 52.3594C84.2969 53.7773 86.0547 55.1602 87.6719 56.5078C89.2891 57.8438 90.7539 59.1504 92.0664 60.4277C94.2812 62.5723 95.3887 64.1367 95.3887 65.1211ZM98.9219 44.6426C98.9219 44.209 99.0508 43.793 99.3086 43.3945C99.5781 42.9844 99.9062 42.6562 100.293 42.4102C100.68 42.1523 101.061 42.0234 101.436 42.0234C101.986 42.0234 102.449 42.2578 102.824 42.7266C103.211 43.1836 103.404 43.6406 103.404 44.0977C103.404 44.5312 103.27 44.9297 103 45.293C102.73 45.6562 102.367 45.9199 101.91 46.084C101.395 46.3418 100.938 46.4707 100.539 46.4707C100.105 46.4707 99.7246 46.2949 99.3965 45.9434C99.0801 45.5801 98.9219 45.1465 98.9219 44.6426ZM101.77 63.1348C101.734 64.0723 101.605 64.8223 101.383 65.3848C101.16 65.9355 100.773 66.2109 100.223 66.2109C99.918 66.2109 99.6484 66.0996 99.4141 65.877C99.1797 65.6543 99.0625 65.3789 99.0625 65.0508C99.0625 64.8984 99.0918 64.7461 99.1504 64.5938C99.2559 64.3477 99.3379 63.8613 99.3965 63.1348C99.4668 62.3965 99.5195 61.5293 99.5547 60.5332C99.5898 59.5371 99.6133 58.5117 99.625 57.457C99.6484 56.3906 99.6602 55.4004 99.6602 54.4863C99.6602 53.5723 99.6602 52.8457 99.6602 52.3066C99.6602 51.3105 99.6543 50.3555 99.6426 49.4414C99.6426 49.0664 99.7598 48.7852 99.9941 48.5977C100.24 48.4102 100.51 48.3164 100.803 48.3164C101.084 48.3164 101.336 48.4102 101.559 48.5977C101.793 48.7734 101.91 49.043 101.91 49.4062C101.922 50.0273 101.928 50.6367 101.928 51.2344C101.939 51.832 101.945 52.418 101.945 52.9922C101.945 54.9023 101.934 56.6309 101.91 58.1777C101.898 59.7246 101.852 61.377 101.77 63.1348ZM108.115 47.8945C108.455 47.8945 108.736 48.0293 108.959 48.2988C109.803 49.3184 110.418 50.8887 110.805 53.0098C112.398 50.127 114.455 48.5039 116.975 48.1406C117.373 48.082 117.766 48.0527 118.152 48.0527C119.559 48.0527 120.801 48.375 121.879 49.0195C122.957 49.6641 123.842 50.5137 124.533 51.5684C125.225 52.623 125.693 53.7598 125.939 54.9785C126.104 55.7637 126.186 56.5664 126.186 57.3867C126.186 59.9766 125.359 62.7129 123.707 65.5957C123.496 65.959 123.174 66.1406 122.74 66.1406C122.377 66.1406 122.049 65.9707 121.756 65.6309C121.475 65.2793 121.463 64.8867 121.721 64.4531C123.174 61.9219 123.9 59.5605 123.9 57.3691C123.9 56.7129 123.836 56.0742 123.707 55.4531C123.52 54.5508 123.174 53.7129 122.67 52.9395C122.178 52.166 121.545 51.5449 120.771 51.0762C120.01 50.5957 119.131 50.3555 118.135 50.3555C117.865 50.3555 117.59 50.373 117.309 50.4082C116.148 50.5723 115.158 51.082 114.338 51.9375C113.518 52.793 112.855 53.8301 112.352 55.0488C111.859 56.2559 111.502 57.4863 111.279 58.7402C111.279 58.8926 111.279 59.0449 111.279 59.1973C111.279 60.8848 111.191 62.584 111.016 64.2949L110.945 64.9805C110.91 65.3086 110.781 65.5547 110.559 65.7188C110.336 65.8711 110.096 65.9473 109.838 65.9473C109.557 65.9473 109.293 65.8594 109.047 65.6836C108.812 65.5078 108.689 65.2441 108.678 64.8926C108.654 64.3652 108.643 63.8496 108.643 63.3457C108.643 61.623 108.76 60.0352 108.994 58.582C108.947 55.8867 108.736 53.8652 108.361 52.5176C107.998 51.1816 107.664 50.3262 107.359 49.9512C107.078 49.5996 106.938 49.2891 106.938 49.0195C106.938 48.6797 107.061 48.4102 107.307 48.2109C107.553 48 107.822 47.8945 108.115 47.8945ZM136.258 66.2109C135.145 66.2109 134.225 65.8301 133.498 65.0684C132.783 64.3066 132.25 63.3398 131.898 62.168C131.547 60.9961 131.371 59.7949 131.371 58.5645C131.371 56.8066 131.734 55.1016 132.461 53.4492C133.527 51.0234 135.191 49.4062 137.453 48.5977C138.285 48.293 139.111 48.1406 139.932 48.1406C141.619 48.1406 142.926 48.6973 143.852 49.8105C144.777 50.9238 145.299 52.3066 145.416 53.959C145.463 54.1934 145.516 54.6152 145.574 55.2246C145.633 55.8223 145.686 56.4902 145.732 57.2285C145.779 57.9551 145.814 58.6582 145.838 59.3379C145.873 60.0176 145.891 60.5566 145.891 60.9551C145.891 65.0215 145.287 68.3086 144.08 70.8164C143.4 72.2109 142.469 73.4062 141.285 74.4023C140.102 75.4102 138.602 75.9141 136.785 75.9141C136.445 75.9141 136.094 75.8906 135.73 75.8438C133.902 75.6328 132.08 74.9707 130.264 73.8574C129.912 73.6465 129.736 73.3242 129.736 72.8906C129.736 72.4922 129.912 72.1641 130.264 71.9062C130.627 71.6484 131.025 71.6484 131.459 71.9062C133.006 72.8438 134.482 73.3945 135.889 73.5586C136.205 73.5938 136.51 73.6113 136.803 73.6113C138.174 73.6113 139.252 73.2539 140.037 72.5391C140.834 71.8242 141.496 70.916 142.023 69.8145C143.078 67.623 143.605 64.6641 143.605 60.9375C143.605 60.4922 143.6 60.041 143.588 59.584C141.561 63.627 139.598 65.7598 137.699 65.9824C137.195 66.1348 136.715 66.2109 136.258 66.2109ZM136.416 63.8906C136.615 63.8906 136.797 63.8613 136.961 63.8027C137.125 63.7324 137.312 63.6973 137.523 63.6973C137.688 63.6973 137.998 63.5039 138.455 63.1172C138.9 62.7305 139.363 62.1914 139.844 61.5C140.324 60.8086 140.775 60.0703 141.197 59.2852C141.619 58.5 141.965 57.7676 142.234 57.0879C142.785 55.6934 143.096 54.8145 143.166 54.4512C143.154 54.3574 143.143 54.2812 143.131 54.2227C143.131 54.1641 143.131 54.123 143.131 54.0996C143.025 52.8574 142.727 51.9375 142.234 51.3398C141.742 50.7305 140.998 50.4258 140.002 50.4258C139.381 50.4258 138.789 50.5312 138.227 50.7422C136.609 51.3164 135.402 52.4941 134.605 54.2754C133.973 55.7051 133.656 57.1348 133.656 58.5645C133.656 59.5723 133.779 60.5215 134.025 61.4121C134.283 62.291 134.594 62.9004 134.957 63.2402C135.414 63.6738 135.9 63.8906 136.416 63.8906Z" fill="#B58B8B"/>
<g opacity="0.5">
<path d="M101.063 26.1282C99.5354 26.1282 98.2973 24.8896 98.2973 23.3621C98.2973 21.8346 99.5358 20.5961 101.063 20.5961C102.16 15.9066 101.692 8.3262 101.063 0.446198C99.5274 0.446198 98.2821 1.69146 98.2821 3.22743C98.2821 4.31843 98.9121 5.26052 99.8265 5.71573L94.9725 15.483L86.615 10.4453C86.8634 10.0289 87.0087 9.54427 87.0087 9.0244C87.0087 7.48844 85.7634 6.24318 84.2275 6.24318C82.6915 6.24318 81.4458 7.48844 81.4458 9.0244C81.4458 10.5604 82.6911 11.8056 84.227 11.8056C84.4187 11.8056 84.606 11.786 84.7866 11.7495L87.9396 29.4324H88.3418H101.063C102.13 28.7195 101.756 27.4823 101.063 26.1282Z" fill="#FCF8EB" fill-opacity="0.75"/>
<path d="M101.063 26.1284C102.591 26.1284 103.829 24.8898 103.829 23.3623C103.829 21.8349 102.591 20.5958 101.063 20.5958V0.445953C102.599 0.445953 103.845 1.69122 103.845 3.22718C103.845 4.31819 103.215 5.26027 102.3 5.71549L107.154 15.4832L115.512 10.446C115.263 10.0296 115.118 9.54492 115.118 9.02505C115.118 7.48909 116.363 6.24382 117.899 6.24382C119.435 6.24382 120.681 7.48864 120.681 9.02461C120.681 10.5606 119.436 11.8058 117.9 11.8058C117.708 11.8058 117.521 11.7862 117.34 11.7497L114.187 29.4326H113.785H101.063V26.1284Z" fill="#FCF8EB"/>
<path d="M101.063 20.1502C99.2924 20.1502 97.8514 21.5908 97.8514 23.3621C97.8514 25.1335 99.2924 26.5741 101.063 26.5741C102.795 24.4326 102.795 22.2912 101.063 20.1502Z" fill="#B58B8B"/>
<path d="M101.063 20.1502C102.834 20.1502 104.275 21.5908 104.275 23.3621C104.275 25.1335 102.834 26.5741 101.063 26.5741V20.1502Z" fill="#B58B8B"/>
<path d="M114.187 29.8784H87.9401C87.7244 29.8784 87.5393 29.7232 87.5014 29.511L84.4224 12.2458C82.577 12.3568 81 10.8694 81 9.02451C81 7.24511 82.4477 5.79743 84.2271 5.79743C86.0065 5.79743 87.4542 7.24511 87.4542 9.02451C87.4542 9.45476 87.3668 9.88055 87.1987 10.2769L94.788 14.8514L99.2421 5.88927C98.3651 5.29227 97.8359 4.30783 97.8359 3.22708C97.8359 1.44768 99.2835 0 101.063 0C102.842 0 104.29 1.44768 104.29 3.22708C104.29 4.28554 103.778 5.25883 102.928 5.85895L107.526 14.7354L114.927 10.2765C114.76 9.8801 114.672 9.45431 114.672 9.02451C114.672 7.24511 116.12 5.79743 117.899 5.79743C119.679 5.79743 121.127 7.24511 121.127 9.02451C121.127 10.8694 119.55 12.3581 117.704 12.2458L114.625 29.5106C114.587 29.7232 114.402 29.8784 114.187 29.8784ZM88.3133 28.9867H113.813L116.901 11.6715C116.921 11.5534 116.989 11.4486 117.089 11.3813C117.188 11.314 117.31 11.2899 117.428 11.3131C117.584 11.3447 117.742 11.3603 117.9 11.3603C119.188 11.3603 120.235 10.3126 120.235 9.02495C120.235 7.73733 119.187 6.68958 117.9 6.68958C116.612 6.68958 115.564 7.73733 115.564 9.02495C115.564 9.44183 115.678 9.85424 115.895 10.2176C116.02 10.4285 115.952 10.7009 115.741 10.8275L107.58 15.7453C107.474 15.8095 107.347 15.8264 107.229 15.7921C107.11 15.7587 107.011 15.6775 106.954 15.5678L101.946 5.90086C101.833 5.68239 101.918 5.41355 102.137 5.29985C102.915 4.89591 103.399 4.1014 103.399 3.22753C103.399 1.93991 102.351 0.892152 101.063 0.892152C99.7758 0.892152 98.728 1.93991 98.728 3.22753C98.728 4.1179 99.2251 4.9182 100.025 5.31724C100.246 5.42692 100.335 5.69443 100.226 5.91468L95.3716 15.6815C95.3159 15.793 95.2165 15.8764 95.097 15.9112C94.977 15.9455 94.8486 15.929 94.7421 15.8648L86.385 10.8275C86.1746 10.7009 86.1064 10.4281 86.2321 10.2172C86.4483 9.85424 86.5629 9.44183 86.5629 9.02451C86.5629 7.73688 85.5152 6.68913 84.2275 6.68913C82.9399 6.68913 81.8917 7.73688 81.8917 9.02451C81.8917 10.3121 82.9395 11.3599 84.2271 11.3599C84.3849 11.3599 84.5432 11.3438 84.6979 11.3126C84.8156 11.289 84.9382 11.3131 85.0376 11.3808C85.1371 11.4482 85.2048 11.5529 85.2258 11.6711L88.3133 28.9867Z" fill="black"/>
<path d="M101.063 26.5741C99.2924 26.5741 97.8514 25.1335 97.8514 23.3621C97.8514 21.5908 99.2924 20.1502 101.063 20.1502C102.835 20.1502 104.275 21.5908 104.275 23.3621C104.275 25.1335 102.835 26.5741 101.063 26.5741ZM101.063 21.0419C99.7838 21.0419 98.7431 22.083 98.7431 23.3621C98.7431 24.6413 99.7838 25.6823 101.063 25.6823C102.343 25.6823 103.384 24.6413 103.384 23.3621C103.384 22.083 102.343 21.0419 101.063 21.0419Z" fill="black"/>
</g>
<defs>
<linearGradient id="paint0_linear_21_5" x1="74.7708" y1="150.632" x2="74.7708" y2="76.6073" gradientUnits="userSpaceOnUse">
<stop stop-color="#808080" stop-opacity="0.25"/>
<stop offset="0.54" stop-color="#808080" stop-opacity="0.12"/>
<stop offset="1" stop-color="#808080" stop-opacity="0.1"/>
</linearGradient>
<clipPath id="clip0_21_5">
<rect width="149.542" height="109.458" fill="white" transform="translate(0 57.3333)"/>
</clipPath>
</defs>
</svg>
